PathFileType	4	(X/Y/Z)	/Users/rkoike/Documents/python/sports2d/webcam_20250611_152632/webcam_20250611_152632_px_person01.trc
DataRate	CameraRate	NumFrames	NumMarkers	Units	OrigDataRate	OrigDataStartFrame	OrigNumFrames
30	30	11	22	m	30	0	2485
Frame#	Time	Hip			RHip			RKnee			RAnkle			RBigToe			RSmallToe			RHeel			LHip			LKnee			LAnkle			LBigToe			LSmallToe			LHeel			Neck			Head			Nose			RShoulder			RElbow			RWrist			LShoulder			LElbow			LWrist			
		X1	Y1	Z1	X2	Y2	Z2	X3	Y3	Z3	X4	Y4	Z4	X5	Y5	Z5	X6	Y6	Z6	X7	Y7	Z7	X8	Y8	Z8	X9	Y9	Z9	X10	Y10	Z10	X11	Y11	Z11	X12	Y12	Z12	X13	Y13	Z13	X14	Y14	Z14	X15	Y15	Z15	X16	Y16	Z16	X17	Y17	Z17	X18	Y18	Z18	X19	Y19	Z19	X20	Y20	Z20	X21	Y21	Z21	X22	Y22	Z22
0	0.0	626.3205075802304	728.17332373608	0.0	491.77505914808836	719.2032407094875	0.0	559.4299340445982	468.2280764670805	0.0	396.36206957899486	674.8164929502443	0.0	363.25712163209926	713.1610435906421	0.0	768.429687500224	110.57031249994799	0.0	405.87394966737384	710.3199217216238	0.0	768.0058316961438	742.7487036512267	0.0	909.2516410219838	848.5740125427246	0.0	471.29209562051574	692.9813477475245	0.0	374.6216091081724	724.5255310667153	0.0	340.5281466799528	718.8432873286788	0.0	994.3676437707209	703.710599973986	0.0	665.1871196904339	474.0304257765123	0.0	644.2573123212012	210.9178701919696	0.0	644.257573657912	369.38302631385153	0.0	476.82254084894794	462.0705452444023	0.0	234.6405839289737	668.3744670517582	0.0	530.6408420608564	713.2222115191561	0.0	871.4903319465545	503.9284302321865	0.0	943.2487013555707	716.2138975501481	0.0	474.3803824834889	773.1072744001052	0.0
1	0.033346752549651096	632.3113083356197	755.4050484293628	0.0	497.3300691494521	742.5093934951349	0.0	473.3510399465668	593.9096650685645	0.0	396.36206953535435	674.8164929391764	0.0	363.25712163209926	713.1610435906421	0.0	768.4296875020761	110.570312499518	0.0	405.87394966737384	710.3199217216238	0.0	762.6868478484633	759.0795423943231	0.0	874.579394833688	841.8185208043908	0.0	471.29209560066704	692.9813477485344	0.0	374.6216091081724	724.5255310667153	0.0	340.5281466799528	718.8432873286788	0.0	994.3676437707209	703.710599973986	0.0	664.7473272891843	477.918543021713	0.0	643.9344002604109	186.42074965003525	0.0	645.1461678146211	368.0272202733024	0.0	471.6214347525042	466.37594916229335	0.0	232.69663460899508	677.0406947483157	0.0	522.1561358523921	715.2297880382074	0.0	876.3221015570359	512.2223206825537	0.0	954.6724910256455	722.9670032676073	0.0	622.5639174952348	750.6675048635476	0.0
2	0.06669350509930219	635.9663492687789	773.8375497687822	0.0	502.7256991037621	759.6298078538574	0.0	391.651309184046	704.4534136967029	0.0	396.36206947683405	674.8164929303765	0.0	363.25712163209926	713.1610435906421	0.0	768.4296875027741	110.57031249935598	0.0	405.87394966737384	710.3199217216238	0.0	759.9182739639111	768.9067774828428	0.0	842.8547028695975	835.6373261094873	0.0	471.29209555476837	692.9813477511948	0.0	374.6216091081724	724.5255310667153	0.0	340.5281466799528	718.8432873286788	0.0	994.3676437707209	703.710599973986	0.0	663.0014017529829	479.4159257732221	0.0	645.4272020231585	174.02181637632455	0.0	646.4834737326485	368.06519856885274	0.0	470.01617984302646	468.6794644733497	0.0	228.56073650901695	676.9048282473872	0.0	503.9148276740827	713.6799027858707	0.0	875.4844570325627	511.3734798582482	0.0	960.2581686076634	723.2754291979369	0.0	752.8405136029553	731.1778907339368	0.0
3	0.10004025764895329	637.4868327777316	771.5857153234894	0.0	506.851564748295	759.7139333315245	0.0	323.3154810347597	767.3607116679103	0.0	396.3620695892644	674.8164929702921	0.0	363.25712163209926	713.1610435906421	0.0	768.4296874946325	110.57031250124612	0.0	405.87394966737384	710.3199217216238	0.0	760.8483139357978	763.1025958361838	0.0	820.3200382191436	831.2467033110487	0.0	471.29209556951616	692.9813477510578	0.0	374.6216091081724	724.5255310667153	0.0	340.5281466799528	718.8432873286788	0.0	994.3676437707209	703.710599973986	0.0	661.3892718117241	478.44174641626097	0.0	646.7701064480353	176.1758883504327	0.0	647.1258517203516	369.112349982326	0.0	470.2754583324254	469.6833270417258	0.0	225.20896540325433	673.7844249985624	0.0	495.1694679562558	710.7957377952274	0.0	873.7564250035025	508.7219773702928	0.0	958.6366874242227	720.3745452365062	0.0	831.8438333868221	719.5420005182445	0.0
4	0.13338701019860438	638.2180563784477	752.0885542237983	0.0	507.28655517601993	742.7139249228774	0.0	274.0749320234165	762.9538156023573	0.0	396.36207010028755	674.8164930905571	0.0	363.25712163209926	713.1610435906421	0.0	768.4296874757044	110.57031250564044	0.0	405.87394966737384	710.3199217216238	0.0	763.227994662955	744.4465995031783	0.0	810.8148858828935	829.3947335944023	0.0	471.2920958317446	692.9813477372131	0.0	374.6216091081724	724.5255310667153	0.0	340.5281466799528	718.8432873286788	0.0	994.3676437707209	703.710599973986	0.0	661.2448464660466	477.342765288157	0.0	645.4298150341785	184.07915097887877	0.0	645.8531032618407	369.45668621651714	0.0	469.7946260522833	470.4358993437768	0.0	226.74781602773422	675.8638412464325	0.0	509.16810953812825	710.8544670705246	0.0	876.6584849405475	513.0815878557083	0.0	953.5290917169256	720.4507117651381	0.0	845.4830696062437	716.7767200761581	0.0
5	0.16673376274825547	638.4426066926551	733.9943543687313	0.0	505.0783747168367	723.4828658359594	0.0	240.95827279785016	716.2812893919883	0.0	396.3620704904846	674.816493113669	0.0	363.25712163209926	713.1610435906421	0.0	768.4296874815627	110.57031250428038	0.0	405.87394966737384	710.3199217216238	0.0	761.5114425794955	726.8233065726364	0.0	810.3387683925467	829.3019711764101	0.0	471.29209625128567	692.9813477117864	0.0	374.6216091081724	724.5255310667153	0.0	340.5281466799528	718.8432873286788	0.0	994.3676437707209	703.710599973986	0.0	661.504413597507	477.9602268411914	0.0	642.1254303905982	187.82736791822592	0.0	643.7453794983294	368.7938992160191	0.0	470.33778874451076	469.8608609018687	0.0	232.5071596901031	678.9778399410782	0.0	522.1481038468123	712.7143323290941	0.0	880.2784805184664	518.3876554935224	0.0	949.5679389735806	721.50434896719	0.0	822.0763891189996	717.1576556989718	0.0
6	0.20008051529790657	636.7667814957867	726.734576600218	0.0	502.64584410488465	712.9315494853313	0.0	220.43499854731655	672.7256638108174	0.0	396.36206861711764	674.8164925431098	0.0	363.25712163209926	713.1610435906421	0.0	768.4296875892805	110.5703124792727	0.0	405.87394966737384	710.3199217216238	0.0	752.8072127734005	717.4185086087014	0.0	812.0239196565616	829.6303064606639	0.0	471.2920957038502	692.9813477345056	0.0	374.6216091081724	724.5255310667153	0.0	340.5281466799528	718.8432873286788	0.0	994.3676437707209	703.710599973986	0.0	661.6421879342843	479.54957904291786	0.0	639.6118190974654	186.67549929556665	0.0	643.7597849184656	368.1555400601866	0.0	473.92348731182983	467.08307691956736	0.0	238.62221094611255	676.950779850937	0.0	512.459309503636	712.5564090399639	0.0	879.51654845483	516.2943117188167	0.0	948.4748571745889	718.0076456990398	0.0	792.6536416437946	716.6177400327456	0.0
7	0.23342726784755768	632.2988630083413	725.7820555900452	0.0	498.5986433786313	710.8068787757047	0.0	211.80817890894565	654.3612636305235	0.0	396.3620630891781	674.8164913483675	0.0	363.25712163209926	713.1610435906421	0.0	768.4296877626394	110.57031243902587	0.0	405.87394966737384	710.3199217216238	0.0	741.5406908019197	714.6911934546432	0.0	812.7396637142137	829.7697476627787	0.0	471.2920925282446	692.9813479072294	0.0	374.6216091081724	724.5255310667153	0.0	340.5281466799528	718.8432873286788	0.0	994.3676437707209	703.710599973986	0.0	662.7086746856727	480.5029512500441	0.0	640.645404198958	185.5723354997165	0.0	648.0992108070443	368.26291491581964	0.0	478.18327546140443	464.1833876854297	0.0	241.55799678168393	673.2167847410644	0.0	495.00160611856376	711.2954812132044	0.0	876.9966183573124	510.9242157324708	0.0	949.7306398564366	710.9603921937779	0.0	766.3052415123417	716.5853947356517	0.0
8	0.26677402039720877	626.8410154232205	724.9179410870228	0.0	491.2788886652957	712.5862134546031	0.0	211.2303906054396	653.9773272035234	0.0	396.36206222429337	674.8164920075043	0.0	363.25712163209926	713.1610435906421	0.0	768.4296875396898	110.57031249078565	0.0	405.87394966737384	710.3199217216238	0.0	734.182046861313	714.6501944457387	0.0	812.6746606778604	829.7570431413943	0.0	471.2920893311684	692.9813481171562	0.0	374.6216091081724	724.5255310667153	0.0	340.5281466799528	718.8432873286788	0.0	994.3676437707209	703.710599973986	0.0	664.6455581362679	480.01292532966846	0.0	646.3592768955001	187.1963534304205	0.0	656.2136508907141	369.6646973063034	0.0	480.0091719210565	463.8499691933253	0.0	239.86328274504592	673.018423253739	0.0	492.4502297464114	712.4446095867852	0.0	877.3735579728217	510.6225264783616	0.0	951.6267371258637	705.373703077186	0.0	749.0201156293409	717.7354069432441	0.0
9	0.30012077294685985	624.9701627955974	721.9984340677847	0.0	484.20637003982034	714.3956722367874	0.0	212.6913729757733	657.4260131315953	0.0	396.36208882247007	674.8164993527336	0.0	363.25712163209926	713.1610435906421	0.0	768.4296862336411	110.57031279399672	0.0	405.87394966737384	710.3199217216238	0.0	735.1838928912852	714.6064842692596	0.0	812.5124140072317	829.7254250830342	0.0	471.2920995152258	692.9813476312402	0.0	374.6216091081724	724.5255310667153	0.0	340.5281466799528	718.8432873286788	0.0	994.3676437707209	703.710599973986	0.0	666.2712424064046	478.4508998873298	0.0	654.4438350831327	190.6222018901599	0.0	665.5229152026684	372.232335824695	0.0	479.1788102245173	465.9153776960924	0.0	235.31016648785686	676.2229216814333	0.0	505.4709407694489	715.7609704070159	0.0	880.0539105958741	515.3083367877842	0.0	952.3924454171088	704.0943953663651	0.0	744.3902183349423	718.5671555968818	0.0
10	0.33346752549651093	631.0524983935205	719.8769809234145	0.0	484.94787394869627	716.1749852892049	0.0	213.35082729779197	658.7749326154565	0.0	396.36214343320125	674.8165098479411	0.0	363.25712163209926	713.1610435906421	0.0	768.4296849075417	110.57031310186274	0.0	405.87394966737384	710.3199217216238	0.0	749.6991662188386	717.3007800670425	0.0	812.4663283413902	829.7166355377502	0.0	471.29213506070903	692.9813456421953	0.0	374.6216091081724	724.5255310667153	0.0	340.5281466799528	718.8432873286788	0.0	994.3676437707209	703.710599973986	0.0	667.2113470111732	476.94641569151264	0.0	661.2738047680753	193.29963224982242	0.0	673.7162119945895	374.077613722766	0.0	476.60276085366365	468.3922768054942	0.0	231.0804579970402	680.4260378523071	0.0	521.6221566454462	717.5680299797588	0.0	881.6530488027511	518.9028065865314	0.0	952.1472456279128	707.4402317664469	0.0	746.1166124153335	718.6512082014298	0.0
